<svg width="200" height="80" viewBox="0 0 200 80" fill="none" xmlns="http://www.w3.org/2000/svg">
<path d="M51.2173 50.4135C45.2308 50.4135 40.5491 45.8597 40.5491 40.0523V40.0012C40.5491 34.3473 45.4099 29.5889 51.1917 29.5889C55.6431 29.5889 57.5874 31.4308 59.455 33.1961L59.9411 33.6566L56.9223 36.7521L56.7176 36.4963C55.0803 34.4752 53.6988 33.8101 51.0638 33.8101C48.1985 33.8101 44.975 36.4451 44.975 39.9756V40.0267C44.975 43.506 47.8147 46.2434 51.4475 46.2434C53.4942 46.2434 54.6966 45.5015 55.6687 44.6829L55.6943 43.2246H51.6778L51.7289 39.4128H59.9155V46.3713L59.8387 46.4481C58.0991 48.2901 56.1804 50.4135 51.2173 50.4135Z" fill="#00A7E1"/>
<path d="M10.3867 50.4134C4.86077 50.4134 0 45.655 0 40.2058V40.1546C0 34.2194 4.55378 29.6656 10.5914 29.5888C14.8382 29.5121 17.1918 31.3796 19.1105 33.4263L19.2896 33.631L16.2452 36.7777L16.0406 36.4963C14.5823 34.6031 12.8427 33.7333 10.5402 33.7333C7.29117 33.7333 4.45145 36.7009 4.45145 40.0779V40.1546C4.45145 43.3525 7.34233 46.2434 10.5402 46.2434C13.5334 46.2434 14.6847 44.9642 16.0406 43.4548L16.322 43.1223L19.392 46.2434L19.1873 46.4481C17.2686 48.5459 15.1196 50.4134 10.3867 50.4134Z" fill="#FF8300"/>
<path d="M60.6318 48.4179C60.6318 47.4202 61.4249 46.6015 62.4482 46.6015C63.4715 46.6015 64.239 47.4202 64.239 48.3923C64.239 49.3645 63.446 50.2087 62.4226 50.2087C61.3993 50.2087 60.6318 49.4156 60.6318 48.4179ZM64.06 48.4179C64.06 47.5225 63.3692 46.7806 62.4482 46.7806C61.5272 46.7806 60.8365 47.5225 60.8365 48.4179C60.8365 49.3133 61.5272 50.0296 62.4482 50.0296C63.3692 50.0296 64.06 49.3133 64.06 48.4179ZM61.7319 47.4202H62.5761C62.832 47.4202 63.0111 47.4969 63.139 47.6248C63.2413 47.7272 63.2925 47.8551 63.2925 48.0086C63.2925 48.3156 63.1134 48.4946 62.8576 48.5714L63.3692 49.2877H62.9343L62.4738 48.6226H62.0901V49.2877H61.7319C61.7319 49.3133 61.7319 47.4202 61.7319 47.4202ZM62.5506 48.3411C62.7808 48.3411 62.9343 48.2388 62.9343 48.0342C62.9343 47.8551 62.8064 47.7272 62.5506 47.7272H62.0901V48.3156C62.0901 48.3411 62.5506 48.3411 62.5506 48.3411Z" fill="#3D3935"/>
<path d="M38.4513 50.0553H34.0255V41.6129H25.7366V50.0553H21.3619V29.9214H25.7366V37.4684H34.0255V29.9214H38.4513V50.0553Z" fill="#80BC00"/>
<path d="M193.608 49.5644C190.64 49.5644 188.206 48.5749 185.96 46.5691L187.27 45.018C189.222 46.7831 191.094 47.6656 193.688 47.6656C196.202 47.6656 197.86 46.3284 197.86 44.4831V44.4296C197.86 42.6913 196.924 41.7018 192.993 40.8728C188.687 39.9367 186.708 38.5461 186.708 35.4706V35.4171C186.708 32.4753 189.303 30.3091 192.859 30.3091C195.587 30.3091 197.54 31.0846 199.438 32.609L198.208 34.2404C196.47 32.823 194.732 32.2079 192.806 32.2079C190.372 32.2079 188.821 33.545 188.821 35.2299V35.2834C188.821 37.0484 189.784 38.038 193.902 38.9205C198.074 39.8298 200 41.3541 200 44.2157V44.2692C200 47.4784 197.326 49.5644 193.608 49.5644Z" fill="#3D3935"/>
<path d="M167.601 49.2969V30.5764H174.1C179.984 30.5764 184.049 34.6147 184.049 39.8832V39.9366C184.049 45.2051 179.984 49.2969 174.1 49.2969H167.601ZM174.1 32.5287H169.714V47.3446H174.1C178.834 47.3446 181.856 44.1354 181.856 39.9901V39.9366C181.856 35.7914 178.834 32.5287 174.1 32.5287Z" fill="#3D3935"/>
<path d="M149.419 49.591C146.103 49.591 142.813 46.9702 142.813 42.4238V42.3703C142.813 37.8506 146.103 35.1763 149.419 35.1763C151.986 35.1763 153.644 36.567 154.714 38.1181V29.7741H156.773V49.2969H154.714V46.5155C153.591 48.1736 151.959 49.591 149.419 49.591ZM149.793 47.7457C152.361 47.7457 154.794 45.5795 154.794 42.397V42.3436C154.794 39.1611 152.361 37.0216 149.793 37.0216C147.119 37.0216 144.926 39.0006 144.926 42.3436V42.397C144.926 45.6597 147.199 47.7457 149.793 47.7457Z" fill="#3D3935"/>
<path d="M134.903 49.6179C131.105 49.6179 128.003 46.7028 128.003 42.4239V42.3704C128.003 38.3856 130.811 35.1764 134.636 35.1764C138.727 35.1764 141.081 38.4391 141.081 42.4774C141.081 42.7448 141.081 42.9053 141.054 43.146H130.089C130.383 46.1412 132.496 47.8261 134.956 47.8261C136.855 47.8261 138.192 47.0505 139.316 45.8738L140.599 47.0238C139.209 48.5749 137.524 49.6179 134.903 49.6179ZM130.089 41.6216H138.995C138.781 39.1077 137.337 36.9147 134.582 36.9147C132.175 36.9147 130.357 38.9205 130.089 41.6216Z" fill="#3D3935"/>
<path d="M113.832 49.2968V37.2889H111.934V35.4971H113.832V34.2937C113.832 32.7158 114.26 31.5124 115.036 30.7368C115.731 30.0415 116.747 29.6671 118.004 29.6671C118.967 29.6671 119.609 29.774 120.278 30.0147V31.8065C119.529 31.5926 118.967 31.4589 118.272 31.4589C116.667 31.4589 115.865 32.4216 115.865 34.4007V35.5239H120.251V37.2889H115.892V49.2968H113.832ZM123.086 49.2968V35.4704H125.118V49.2968H123.086ZM122.925 32.4484V30.1752H125.279V32.4484H122.925Z" fill="#3D3935"/>
<path d="M107.155 32.4482V30.175H109.508V32.4482H107.155ZM107.289 49.2966V35.4703H109.348V49.2966H107.289Z" fill="#3D3935"/>
<path d="M91.6914 49.297V35.4706H93.7506V37.8775C94.6599 36.3798 96.1041 35.1764 98.4842 35.1764C101.827 35.1764 103.779 37.4228 103.779 40.7123V49.297H101.72V41.2204C101.72 38.653 100.33 37.0484 97.8959 37.0484C95.5157 37.0484 93.7506 38.7868 93.7506 41.3809V49.297H91.6914Z" fill="#3D3935"/>
<path d="M80.3041 49.591C75.6774 49.591 72.5217 46.7562 72.5217 41.461V30.5764H74.6344V41.3273C74.6344 45.3656 76.8007 47.6388 80.3575 47.6388C83.8075 47.6388 86.0004 45.5528 86.0004 41.461V30.5764H88.1132V41.3006C88.1132 46.7562 84.9842 49.591 80.3041 49.591Z" fill="#3D3935"/>
</svg>
