<svg viewBox="0 0 200 80" fill="none" xmlns="http://www.w3.org/2000/svg">
    <path d="M178.853 30.477C178.853 32.0337 178.56 33.3811 177.974 34.5193C177.405 35.6408 176.643 36.5698 175.689 37.3063C174.752 38.026 173.689 38.5617 172.5 38.9132C171.312 39.248 170.107 39.4153 168.885 39.4153H162.256V21.639H168.684C169.939 21.639 171.178 21.7897 172.4 22.091C173.622 22.3755 174.71 22.8609 175.664 23.5472C176.618 24.2168 177.388 25.1206 177.974 26.2589C178.56 27.3971 178.853 28.8031 178.853 30.477ZM174.383 30.477C174.383 29.4727 174.216 28.6441 173.881 27.9913C173.563 27.3218 173.128 26.7945 172.576 26.4095C172.04 26.0078 171.421 25.7232 170.718 25.5559C170.031 25.3885 169.32 25.3048 168.584 25.3048H166.449V35.6994H168.483C169.253 35.6994 169.99 35.6157 170.693 35.4483C171.412 35.2642 172.04 34.9713 172.576 34.5695C173.128 34.1678 173.563 33.6322 173.881 32.9626C174.216 32.2931 174.383 31.4645 174.383 30.477Z" style="fill: var(--uds-brands-ds-black)"/>
    <path d="M136.965 39.4153V21.639H148.916V25.2797H141.108V28.619H148.489V32.0588H141.108V35.7496H149.368V39.4153H136.965Z" style="fill: var(--uds-brands-ds-black)"/>
    <path d="M119.758 39.4153V21.639H124.077V39.4153H119.758Z" style="fill: var(--uds-brands-ds-black)"/>
    <path d="M99.4128 25.3048V28.9705H106.292V32.5107H99.4128V39.4153H95.1696V21.639H106.87V25.3048H99.4128Z" style="fill: var(--uds-brands-ds-black)"/>
    <path d="M77.9627 39.4153V21.639H82.2813V39.4153H77.9627Z" style="fill: var(--uds-brands-ds-black)"/>
    <path d="M60.2036 39.4153L53.0478 27.7904H52.9725L53.073 39.4153H48.9051V21.639H53.8011L60.9317 33.2388H61.007L60.9066 21.639H65.0745V39.4153H60.2036Z" style="fill: var(--uds-brands-ds-black)"/>
    <path d="M36.0168 32.7116C36.0168 33.7828 35.8327 34.762 35.4644 35.6492C35.1129 36.5196 34.6024 37.2728 33.9329 37.9089C33.2633 38.5282 32.4515 39.0136 31.4974 39.3651C30.56 39.7166 29.5139 39.8924 28.3589 39.8924C27.1872 39.8924 26.1327 39.7166 25.1954 39.3651C24.258 39.0136 23.4629 38.5282 22.8101 37.9089C22.1573 37.2728 21.6552 36.5196 21.3036 35.6492C20.9521 34.762 20.7764 33.7828 20.7764 32.7116V21.639H25.0447V32.3601C25.0447 32.8455 25.1033 33.3058 25.2205 33.741C25.3544 34.1762 25.5469 34.5695 25.7979 34.9211C26.0658 35.2558 26.4089 35.5236 26.8274 35.7245C27.2626 35.9254 27.7815 36.0258 28.384 36.0258C28.9866 36.0258 29.4972 35.9254 29.9156 35.7245C30.3508 35.5236 30.7023 35.2558 30.9701 34.9211C31.238 34.5695 31.4305 34.1762 31.5476 33.741C31.6648 33.3058 31.7234 32.8455 31.7234 32.3601V21.639H36.0168V32.7116Z" style="fill: var(--uds-brands-ds-black)"/>
    <path d="M166.733 46.8444H169.858L172.777 54.8235H172.825L175.712 46.8444H178.853V58.0754H176.87V49.0493H176.838L173.427 58.0754H172.031L168.669 49.0493H168.637V58.0754H166.733V46.8444Z" style="fill: var(--uds-brands-ds-purple)"/>
    <path d="M154.037 46.8444H161.477V48.5893H156.036V51.4446H161.191V53.1261H156.036V56.2987H161.763V58.0754H154.037V46.8444Z" style="fill: var(--uds-brands-ds-purple)"/>
    <path d="M144.276 48.5893H140.833V46.8444H149.717V48.5893H146.274V58.0754H144.276V48.5893Z" style="fill: var(--uds-brands-ds-purple)"/>
    <path d="M135.859 49.1921C135.647 48.9171 135.346 48.6898 134.955 48.51C134.574 48.3196 134.188 48.2245 133.797 48.2245C133.564 48.2245 133.331 48.2562 133.099 48.3196C132.866 48.3725 132.655 48.4624 132.464 48.5893C132.274 48.7056 132.115 48.8643 131.988 49.0652C131.872 49.2556 131.814 49.4882 131.814 49.7632C131.814 50.017 131.867 50.2338 131.972 50.4136C132.078 50.5933 132.221 50.7467 132.401 50.8736C132.591 51.0005 132.818 51.1115 133.083 51.2067C133.347 51.3019 133.638 51.3971 133.955 51.4922C134.315 51.6086 134.685 51.7408 135.066 51.8888C135.457 52.0369 135.811 52.2325 136.129 52.4758C136.456 52.719 136.721 53.0257 136.922 53.3958C137.133 53.766 137.239 54.226 137.239 54.7759C137.239 55.3787 137.128 55.9075 136.906 56.3622C136.684 56.8064 136.388 57.1765 136.018 57.4726C135.647 57.7687 135.214 57.9908 134.717 58.1389C134.22 58.2869 133.696 58.361 133.146 58.361C132.417 58.361 131.703 58.2288 131.005 57.9644C130.307 57.6894 129.736 57.2876 129.292 56.7588L130.719 55.4263C130.994 55.807 131.359 56.1084 131.814 56.3305C132.279 56.5526 132.734 56.6636 133.178 56.6636C133.411 56.6636 133.649 56.6372 133.892 56.5843C134.135 56.5208 134.352 56.4204 134.542 56.2829C134.743 56.1454 134.902 55.9762 135.018 55.7753C135.145 55.5638 135.208 55.3047 135.208 54.998C135.208 54.7019 135.14 54.4586 135.002 54.2683C134.865 54.0674 134.68 53.8981 134.447 53.7607C134.214 53.6126 133.939 53.4857 133.622 53.38C133.305 53.2742 132.972 53.1632 132.623 53.0468C132.284 52.9411 131.946 52.8142 131.608 52.6661C131.269 52.5181 130.962 52.3224 130.688 52.0792C130.423 51.8359 130.206 51.5398 130.037 51.1909C129.868 50.8313 129.783 50.3871 129.783 49.8584C129.783 49.2873 129.9 48.7955 130.132 48.3831C130.376 47.9706 130.688 47.6322 131.068 47.3679C131.46 47.0929 131.898 46.892 132.385 46.7651C132.882 46.6276 133.384 46.5588 133.892 46.5588C134.463 46.5588 135.039 46.6593 135.621 46.8602C136.213 47.0612 136.726 47.3626 137.16 47.7644L135.859 49.1921Z" style="fill: var(--uds-brands-ds-purple)"/>
    <path d="M119.963 53.2054L115.743 46.8444H118.186L121.01 51.5716L123.865 46.8444H126.181L121.962 53.2054V58.0754H119.963V53.2054Z" style="fill: var(--uds-brands-ds-purple)"/>
    <path d="M111.195 49.1921C110.983 48.9171 110.682 48.6898 110.291 48.51C109.91 48.3196 109.524 48.2245 109.133 48.2245C108.9 48.2245 108.667 48.2562 108.435 48.3196C108.202 48.3725 107.991 48.4624 107.8 48.5893C107.61 48.7056 107.451 48.8643 107.324 49.0652C107.208 49.2556 107.15 49.4882 107.15 49.7632C107.15 50.017 107.203 50.2338 107.308 50.4136C107.414 50.5933 107.557 50.7467 107.737 50.8736C107.927 51.0005 108.154 51.1115 108.419 51.2067C108.683 51.3019 108.974 51.3971 109.291 51.4922C109.651 51.6086 110.021 51.7408 110.402 51.8888C110.793 52.0369 111.147 52.2325 111.465 52.4758C111.792 52.719 112.057 53.0257 112.258 53.3958C112.469 53.766 112.575 54.226 112.575 54.7759C112.575 55.3787 112.464 55.9075 112.242 56.3622C112.02 56.8064 111.724 57.1765 111.354 57.4726C110.983 57.7687 110.55 57.9908 110.053 58.1389C109.556 58.2869 109.032 58.361 108.482 58.361C107.753 58.361 107.039 58.2288 106.341 57.9644C105.643 57.6894 105.072 57.2876 104.628 56.7588L106.055 55.4263C106.33 55.807 106.695 56.1084 107.15 56.3305C107.615 56.5526 108.07 56.6636 108.514 56.6636C108.747 56.6636 108.985 56.6372 109.228 56.5843C109.471 56.5208 109.688 56.4204 109.878 56.2829C110.079 56.1454 110.238 55.9762 110.354 55.7753C110.481 55.5638 110.545 55.3047 110.545 54.998C110.545 54.7019 110.476 54.4586 110.338 54.2683C110.201 54.0674 110.016 53.8981 109.783 53.7607C109.55 53.6126 109.275 53.4857 108.958 53.38C108.641 53.2742 108.308 53.1632 107.959 53.0468C107.62 52.9411 107.282 52.8142 106.944 52.6661C106.605 52.5181 106.299 52.3224 106.024 52.0792C105.759 51.8359 105.542 51.5398 105.373 51.1909C105.204 50.8313 105.119 50.3871 105.119 49.8584C105.119 49.2873 105.236 48.7955 105.468 48.3831C105.712 47.9706 106.024 47.6322 106.404 47.3679C106.796 47.0929 107.234 46.892 107.721 46.7651C108.218 46.6276 108.72 46.5588 109.228 46.5588C109.799 46.5588 110.375 46.6593 110.957 46.8602C111.549 47.0612 112.062 47.3626 112.496 47.7644L111.195 49.1921Z" style="fill: var(--uds-brands-ds-purple)"/>
    <path d="M83.097 46.8444H85.7462L90.9651 55.2518H90.9969V46.8444H92.9956V58.0754H90.4575L85.1275 49.3983H85.0958V58.0754H83.097V46.8444Z" style="fill: var(--uds-brands-ds-purple)"/>
    <path d="M77.6491 57.4885C77.0781 57.7634 76.4488 57.975 75.7614 58.123C75.0846 58.2816 74.302 58.361 73.4137 58.361C72.5042 58.361 71.674 58.2182 70.9232 57.9327C70.1723 57.6365 69.5272 57.2294 68.9879 56.7112C68.4486 56.1824 68.0255 55.5585 67.7189 54.8394C67.4227 54.1097 67.2747 53.3059 67.2747 52.4282C67.2747 51.5293 67.428 50.7202 67.7347 50.0011C68.052 49.2714 68.4803 48.6528 69.0196 48.1451C69.5695 47.6375 70.2146 47.2462 70.9549 46.9713C71.6952 46.6963 72.4989 46.5588 73.3661 46.5588C74.265 46.5588 75.0846 46.691 75.8249 46.9554C76.5757 47.2092 77.1785 47.5476 77.6333 47.9707L76.2532 49.4618C75.9676 49.1445 75.5658 48.8748 75.0476 48.6528C74.54 48.4307 73.9848 48.3196 73.382 48.3196C72.7897 48.3196 72.2504 48.4254 71.7639 48.6369C71.288 48.8484 70.8809 49.1392 70.5425 49.5094C70.2041 49.8795 69.9397 50.3131 69.7493 50.8101C69.5695 51.3072 69.4797 51.8465 69.4797 52.4282C69.4797 53.031 69.5695 53.5862 69.7493 54.0938C69.9397 54.5908 70.2041 55.0244 70.5425 55.3946C70.8915 55.7647 71.3092 56.0555 71.7957 56.267C72.2927 56.468 72.8532 56.5684 73.4771 56.5684C74.3338 56.5684 75.0793 56.4362 75.7138 56.1719V53.3165H73.3502V51.6667H77.6491V57.4885Z" style="fill: var(--uds-brands-ds-purple)"/>
    <path d="M60.3231 46.8444H62.3218V58.0754H60.3231V46.8444Z" style="fill: var(--uds-brands-ds-purple)"/>
    <path d="M53.9268 49.1921C53.7153 48.9171 53.4139 48.6898 53.0226 48.51C52.6419 48.3196 52.2559 48.2245 51.8646 48.2245C51.6319 48.2245 51.3993 48.2562 51.1666 48.3196C50.934 48.3725 50.7224 48.4624 50.5321 48.5893C50.3417 48.7056 50.1831 48.8643 50.0562 49.0652C49.9399 49.2556 49.8817 49.4882 49.8817 49.7632C49.8817 50.017 49.9346 50.2338 50.0403 50.4136C50.1461 50.5933 50.2889 50.7467 50.4686 50.8736C50.659 51.0005 50.8864 51.1115 51.1508 51.2067C51.4151 51.3019 51.706 51.3971 52.0232 51.4922C52.3828 51.6086 52.7529 51.7408 53.1336 51.8888C53.5249 52.0369 53.8792 52.2325 54.1965 52.4758C54.5243 52.719 54.7887 53.0257 54.9896 53.3958C55.2011 53.766 55.3069 54.226 55.3069 54.7759C55.3069 55.3787 55.1958 55.9075 54.9737 56.3622C54.7517 56.8064 54.4556 57.1765 54.0854 57.4726C53.7153 57.7687 53.2817 57.9908 52.7846 58.1389C52.2876 58.2869 51.7641 58.361 51.2142 58.361C50.4845 58.361 49.7707 58.2288 49.0727 57.9644C48.3747 57.6894 47.8036 57.2876 47.3595 56.7588L48.7872 55.4263C49.0621 55.807 49.427 56.1084 49.8817 56.3305C50.347 56.5526 50.8018 56.6636 51.2459 56.6636C51.4786 56.6636 51.7165 56.6372 51.9598 56.5843C52.203 56.5208 52.4198 56.4204 52.6102 56.2829C52.8111 56.1454 52.9697 55.9762 53.086 55.7753C53.2129 55.5638 53.2764 55.3047 53.2764 54.998C53.2764 54.7019 53.2077 54.4586 53.0702 54.2683C52.9327 54.0674 52.7476 53.8981 52.515 53.7607C52.2823 53.6126 52.0074 53.4857 51.6901 53.38C51.3728 53.2742 51.0397 53.1632 50.6907 53.0468C50.3523 52.9411 50.0139 52.8142 49.6755 52.6661C49.3371 52.5181 49.0304 52.3224 48.7554 52.0792C48.491 51.8359 48.2743 51.5398 48.105 51.1909C47.9358 50.8313 47.8512 50.3871 47.8512 49.8584C47.8512 49.2873 47.9676 48.7955 48.2002 48.3831C48.4435 47.9706 48.7554 47.6322 49.1361 47.3679C49.5274 47.0929 49.9663 46.892 50.4528 46.7651C50.9498 46.6276 51.4522 46.5588 51.9598 46.5588C52.5308 46.5588 53.1072 46.6593 53.6888 46.8602C54.2811 47.0612 54.794 47.3626 55.2276 47.7644L53.9268 49.1921Z" style="fill: var(--uds-brands-ds-purple)"/>
    <path d="M35.5042 46.8444H42.944V48.5893H37.5029V51.4446H42.6584V53.1261H37.5029V56.2987H43.2295V58.0754H35.5042V46.8444Z" style="fill: var(--uds-brands-ds-purple)"/>
    <path d="M20.376 46.8444H24.3577C25.0874 46.8444 25.8223 46.9395 26.5626 47.1299C27.3029 47.3203 27.9691 47.6375 28.5614 48.0817C29.1536 48.5153 29.6348 49.0916 30.0049 49.8108C30.375 50.5193 30.5601 51.4023 30.5601 52.4599C30.5601 53.4434 30.375 54.2894 30.0049 54.998C29.6348 55.7065 29.1536 56.2882 28.5614 56.7429C27.9691 57.1977 27.3029 57.5361 26.5626 57.7581C25.8223 57.9697 25.0874 58.0754 24.3577 58.0754H20.376V46.8444ZM24.0404 56.3305C24.5586 56.3305 25.0768 56.2723 25.595 56.156C26.1132 56.0291 26.5785 55.8229 26.9909 55.5373C27.4139 55.2412 27.7576 54.8446 28.022 54.3476C28.2864 53.8505 28.4186 53.2213 28.4186 52.4599C28.4186 51.6562 28.2864 51.0005 28.022 50.4929C27.7576 49.9852 27.4139 49.5887 26.9909 49.3031C26.5785 49.0176 26.1132 48.822 25.595 48.7162C25.0768 48.6104 24.5586 48.5576 24.0404 48.5576H22.3748V56.3305H24.0404Z" style="fill: var(--uds-brands-ds-purple)"/>
</svg>
